<svg xmlns="http://www.w3.org/2000/svg" viewBox="0 0 148.53 211.85"><defs><style>.cls-1{fill:#004464;}.cls-2,.cls-3{fill:#92b73e;}.cls-2{fill-rule:evenodd;}</style></defs><g id="Layer_2" data-name="Layer 2"><g id="Layer_1-2" data-name="Layer 1"><path class="cls-1" d="M131.6,121.37l-1.08,1.25-3.33-2.88a10.55,10.55,0,0,0-1.06-.85,1.4,1.4,0,0,0-.94-.15,1.74,1.74,0,0,0-.93.62,1.6,1.6,0,0,0-.46,1,1.13,1.13,0,0,0,.25.78,11,11,0,0,0,1,1l3.4,2.94-1.08,1.24-3.23-2.79a11.21,11.21,0,0,1-1.48-1.46,2.4,2.4,0,0,1-.45-1,2.47,2.47,0,0,1,.13-1.15,4,4,0,0,1,.83-1.34,4.33,4.33,0,0,1,1.35-1.15,2.49,2.49,0,0,1,1.15-.26,2.18,2.18,0,0,1,1,.24,10.81,10.81,0,0,1,1.67,1.23Zm4-11.9-.61,1a6.44,6.44,0,0,0-.64,1.33.86.86,0,0,0,.07.57,1,1,0,0,0,.44.45,1,1,0,0,0,.69.14,1,1,0,0,0,.58-.38,11.78,11.78,0,0,0,.62-1l.64-1.11Zm-3.24-3.76,7,4.05-1.72,3a5.87,5.87,0,0,1-1.14,1.54,1.84,1.84,0,0,1-1.14.43,2.35,2.35,0,0,1-1.29-.33,2.16,2.16,0,0,1-1-1.22,2.51,2.51,0,0,1,.15-1.76,4.14,4.14,0,0,1-1,.42,10.81,10.81,0,0,1-1.61.15l-1.87.06,1-1.7,2.13-.13a11.57,11.57,0,0,0,1.46-.16,1.24,1.24,0,0,0,.54-.26,2.88,2.88,0,0,0,.49-.67l.17-.29-2.94-1.69Zm6.4-6.21,3.22,0-2.4-2.12Zm-4.1,1.61.65-1.65,2,0,1.2-3-1.48-1.31.64-1.62,6.4,5.92-.64,1.61Zm12.45-12.9-.29,1.62-5.07-.91a5.11,5.11,0,0,1-1.5-.44,2.2,2.2,0,0,1-1-1,2.88,2.88,0,0,1-.13-1.71,2.49,2.49,0,0,1,1-1.7,2.79,2.79,0,0,1,2.06-.29l-.09,1.56a2.15,2.15,0,0,0-1,0,.91.91,0,0,0-.57.72.9.9,0,0,0,.18.81,2.57,2.57,0,0,0,1.24.45ZM140.26,69l8.12-.21.15,6-1.37,0-.11-4.37-1.81,0,.1,4.06-1.37,0-.1-4.06-2.2.06.11,4.52-1.37,0ZM145,56.76,139.75,58l.28,1.19a4.64,4.64,0,0,0,.29.94,1.52,1.52,0,0,0,.48.57,1.73,1.73,0,0,0,.86.24,5.2,5.2,0,0,0,1.49-.17,4.7,4.7,0,0,0,1.37-.49,1.83,1.83,0,0,0,.66-.63,1.47,1.47,0,0,0,.2-.82,7,7,0,0,0-.22-1.32Zm1-1.91.67,2.91a6,6,0,0,1,.2,1.54,2.64,2.64,0,0,1-.46,1.36,3.5,3.5,0,0,1-1.11,1.05,5.9,5.9,0,0,1-1.81.69,5.44,5.44,0,0,1-1.74.15,3.57,3.57,0,0,1-1.59-.53,2.91,2.91,0,0,1-.89-1,4.86,4.86,0,0,1-.49-1.37l-.7-3ZM136.08,41a3.06,3.06,0,0,0-1.57,1.52A2.18,2.18,0,0,0,136,45.38a3.1,3.1,0,0,0,2.18-.4,3.07,3.07,0,0,0,1.57-1.5,2.29,2.29,0,0,0-1.49-2.91A3.12,3.12,0,0,0,136.08,41Zm-.82-1.48a5.25,5.25,0,0,1,2-.62,3.82,3.82,0,0,1,1.34.16,3.39,3.39,0,0,1,1.13.6,4.55,4.55,0,0,1,1.08,1.42,3.78,3.78,0,0,1,.32,3.07,5,5,0,0,1-5.5,2.82,3.76,3.76,0,0,1-2.3-2,3.83,3.83,0,0,1-.33-3.07A4.25,4.25,0,0,1,135.26,39.5ZM133,27.61l-.45-.56.16-.13a1.26,1.26,0,0,1,.88-.33.93.93,0,0,1,.69.38,1.73,1.73,0,0,1,.19.31,4.27,4.27,0,0,1,.19.63,1.92,1.92,0,0,0,.27.66.38.38,0,0,0,.27.16.59.59,0,0,0,.39-.11l.44.56a1.7,1.7,0,0,1-1,.45.87.87,0,0,1-.69-.35,1.73,1.73,0,0,1-.2-.32c0-.08-.1-.29-.2-.64a2.67,2.67,0,0,0-.3-.71.39.39,0,0,0-.26-.15A.59.59,0,0,0,133,27.61Zm-3.05,5.24,1.67-2.75-3,1Zm-.67,4.35-1.1-1.39,1-1.7-2-2.56-1.87.61-1.08-1.36,8.34-2.54,1.07,1.36ZM115.58,25.42l.43-.49a10.07,10.07,0,0,0,.75.73,1.18,1.18,0,0,0,.67.35.43.43,0,0,0,.37-.14.4.4,0,0,0,.08-.36.82.82,0,0,0-.31-.45,2.51,2.51,0,0,0-.63-.4l.47-.32a2.61,2.61,0,0,1,.8.5,1.6,1.6,0,0,1,.6.92.92.92,0,0,1-.21.79,1,1,0,0,1-.82.34,2.4,2.4,0,0,1-1.44-.69A4.41,4.41,0,0,1,115.58,25.42Zm6.08-1.56.88,1.4a3.54,3.54,0,0,1-2.23.71,3.4,3.4,0,0,1-2-.92A3.46,3.46,0,0,1,117,22.47a4.24,4.24,0,0,1,1.19-3A4.46,4.46,0,0,1,121,17.81a3.59,3.59,0,0,1,2.81,1A3.39,3.39,0,0,1,125.09,21a3.19,3.19,0,0,1-.36,1.67l-1.47-.77a1.7,1.7,0,0,0-.41-2.15,1.86,1.86,0,0,0-1.53-.47,3.16,3.16,0,0,0-1.8,1.22,3.43,3.43,0,0,0-1,2,1.85,1.85,0,0,0,.66,1.44,1.65,1.65,0,0,0,1.13.42A2.4,2.4,0,0,0,121.66,23.86Zm-10.89-8.61.52-3.17-2.45,2.06Zm1,4.29-1.53-.88.31-1.95-2.83-1.63-1.5,1.27-1.51-.87L111.49,10l1.51.87ZM100,10l1.3,1a3.61,3.61,0,0,1-1.87,1.41,3.83,3.83,0,0,1-4.31-2.19,4.22,4.22,0,0,1,.14-3.2,4.4,4.4,0,0,1,2.13-2.55,3.57,3.57,0,0,1,3,0,3.33,3.33,0,0,1,1.93,1.71,3.23,3.23,0,0,1,.23,1.7l-1.65-.24a1.69,1.69,0,0,0-1.1-1.89,1.86,1.86,0,0,0-1.6.06,3.22,3.22,0,0,0-1.3,1.75,3.38,3.38,0,0,0-.28,2.24A1.8,1.8,0,0,0,97.65,11a1.66,1.66,0,0,0,1.2,0A2.53,2.53,0,0,0,100,10ZM83.25.37l1.62.29L84.1,5a7.62,7.62,0,0,0-.18,1.35,1.34,1.34,0,0,0,.34.88,1.78,1.78,0,0,0,1,.48,1.59,1.59,0,0,0,1.07-.1A1.07,1.07,0,0,0,86.88,7a9.73,9.73,0,0,0,.32-1.35L88,1.22l1.62.28-.76,4.21a10.73,10.73,0,0,1-.49,2,2.34,2.34,0,0,1-.66.92,2.56,2.56,0,0,1-1,.49,4.24,4.24,0,0,1-1.58,0,4.44,4.44,0,0,1-1.68-.58A2.39,2.39,0,0,1,82.28,6.7a10.24,10.24,0,0,1,.21-2.06Zm-12.41,1L71,6.79l1.22,0a4.76,4.76,0,0,0,1-.11,1.51,1.51,0,0,0,.65-.35,1.76,1.76,0,0,0,.4-.8A4.82,4.82,0,0,0,74.36,4a4.72,4.72,0,0,0-.2-1.44,1.88,1.88,0,0,0-.48-.77,1.53,1.53,0,0,0-.77-.36,7.45,7.45,0,0,0-1.34-.05ZM69.16.08l3-.08a6.26,6.26,0,0,1,1.54.12,2.68,2.68,0,0,1,1.24.72,3.55,3.55,0,0,1,.81,1.29,6.12,6.12,0,0,1,.31,1.92,5.38,5.38,0,0,1-.2,1.73A3.71,3.71,0,0,1,75,7.24a2.87,2.87,0,0,1-1.14.67,4.48,4.48,0,0,1-1.44.21l-3.08.08Zm-11.55,10L55.78,2.16,61.64.81,62,2.15l-4.26,1,.41,1.76L62.05,4l.31,1.34-4,.91.5,2.15,4.41-1,.31,1.34Zm-14,5.29L40.23,8l5.48-2.48.56,1.25-4,1.8L43,10.18l3.71-1.67.56,1.25-3.7,1.67.91,2,4.12-1.87.57,1.25Zm-13,.32,3.12,4.39,1-.71a4.58,4.58,0,0,0,.76-.63,1.49,1.49,0,0,0,.34-.66,1.63,1.63,0,0,0-.1-.89A5.1,5.1,0,0,0,35,15.88a4.67,4.67,0,0,0-1-1.08,1.89,1.89,0,0,0-.83-.37,1.49,1.49,0,0,0-.84.13,6.65,6.65,0,0,0-1.14.71Zm-2.13-.16L30.9,13.8A5.49,5.49,0,0,1,32.25,13a2.68,2.68,0,0,1,1.43-.1,3.49,3.49,0,0,1,1.4.62A6.06,6.06,0,0,1,36.4,15a5.26,5.26,0,0,1,.8,1.56,3.6,3.6,0,0,1,.13,1.67,2.76,2.76,0,0,1-.57,1.19,4.44,4.44,0,0,1-1.08,1l-2.51,1.79ZM22.58,32.78l-6.14-5.32,3.94-4.54,1,.9-2.86,3.3,1.37,1.18,2.66-3.07,1,.9L21,29.2l1.67,1.44,3-3.42,1,.9Zm-12,5.56L15.28,41l.6-1.06a4.5,4.5,0,0,0,.43-.9,1.45,1.45,0,0,0,0-.74,1.75,1.75,0,0,0-.47-.76,5.33,5.33,0,0,0-1.21-.88,4.63,4.63,0,0,0-1.33-.58,1.89,1.89,0,0,0-.92,0,1.5,1.5,0,0,0-.7.47A6.73,6.73,0,0,0,11,37.7Zm-2,.74,1.49-2.6a5.73,5.73,0,0,1,.9-1.26,2.68,2.68,0,0,1,1.26-.68,3.53,3.53,0,0,1,1.52,0,6.13,6.13,0,0,1,1.8.73A5,5,0,0,1,17,36.33a3.53,3.53,0,0,1,.82,1.46,2.94,2.94,0,0,1,0,1.32,5.13,5.13,0,0,1-.58,1.35l-1.53,2.67Zm.57,10.43L6,49.62l2.5,2Zm4-1.81-.57,1.68-2,.07-1,3.09,1.53,1.23-.55,1.65L3.9,49.82l.56-1.64ZM1.89,64.05,7.18,65l.21-1.2a4.21,4.21,0,0,0,.1-1,1.45,1.45,0,0,0-.22-.71,1.63,1.63,0,0,0-.69-.56,5.06,5.06,0,0,0-1.44-.43A4.85,4.85,0,0,0,3.69,61a1.87,1.87,0,0,0-.85.32,1.55,1.55,0,0,0-.51.68A7.41,7.41,0,0,0,2,63.32ZM.25,65.42l.52-2.94A5.65,5.65,0,0,1,1.2,61a2.65,2.65,0,0,1,1-1.07,3.51,3.51,0,0,1,1.43-.53,5.85,5.85,0,0,1,1.93.07A5.39,5.39,0,0,1,7.17,60a3.53,3.53,0,0,1,1.26,1.11,2.81,2.81,0,0,1,.44,1.24,4.84,4.84,0,0,1-.09,1.46l-.54,3ZM8.09,78l-8,.2,0-1.64,6.68-.17-.1-4.08,1.37,0ZM1.79,91.76,1.5,90.14l4.34-.77a7.88,7.88,0,0,0,1.32-.3,1.29,1.29,0,0,0,.71-.63A1.73,1.73,0,0,0,8,87.33a1.61,1.61,0,0,0-.46-1,1.07,1.07,0,0,0-.76-.29,9.35,9.35,0,0,0-1.38.17L1,87,.66,85.41l4.2-.75a10.76,10.76,0,0,1,2.06-.23,2.14,2.14,0,0,1,1.09.3,2.38,2.38,0,0,1,.82.82A3.92,3.92,0,0,1,9.35,87a4.54,4.54,0,0,1,.05,1.78,2.48,2.48,0,0,1-.53,1.05,2.28,2.28,0,0,1-.8.61,9.74,9.74,0,0,1-2,.52Zm7.58,6.68-.13-1.65a3.6,3.6,0,0,1,2.3.4,3.8,3.8,0,0,1,1.34,4.65,4.22,4.22,0,0,1-2.43,2.08,4.39,4.39,0,0,1-3.31.18A3.57,3.57,0,0,1,5.08,102,3.4,3.4,0,0,1,5,99.37,3.21,3.21,0,0,1,6.1,98.05l1,1.37a1.72,1.72,0,0,0-.71.92,1.76,1.76,0,0,0,.07,1.17,1.85,1.85,0,0,0,1.14,1.13,3.15,3.15,0,0,0,2.16-.25,3.42,3.42,0,0,0,1.84-1.32,1.82,1.82,0,0,0,.08-1.58,1.67,1.67,0,0,0-.81-.9A2.41,2.41,0,0,0,9.37,98.44Zm6,12.59-1.92,2.57,3.12-.7Zm1.09-4.27,1,1.49-1.18,1.59L18,112.58l1.92-.43.94,1.46-8.54,1.73-.94-1.46ZM26.64,121l-5.88,5.6-3.85-4,1-1,2.72,2.85L22,123.09l-2.35-2.46,1-.95L23,122.15l2.49-2.38Z"/><path class="cls-2" d="M53.16,126.39c2.42-.61,17.42-9.27,19.49-11l0-38.26c-1.82,1.2-12.81,18.39-15.76,22.66-2,2.84-3.72,4.15-3.72,8.45ZM74.51,32.67l.06,38.63c2.35-1.9,13.71-20,17.54-25.36,1.81-2.53,1.94-2.56,1.92-6.53,0-5.78.12-11.78-.09-17.53Zm2,40.54h37.62c2.37-.51,5.14-7.29,6.33-9.35,1.42-2.46,4.76-7.79,5.33-10.13-5.58.16-11.3.07-16.89,0s-6.11,1.31-12.05,5.35C93.71,61.25,77.88,71.36,76.51,73.21Zm-43.61,0H70.7c-2.44-2.47-21.06-14.31-25.55-17.54-2.36-1.7-2.64-1.93-6.36-1.92-5.81,0-11.64,0-17.45,0C21.76,55.23,30.57,72.11,32.9,73.22Zm41.77,42.65,19.4,10.66c-.47-11.33,1.62-19-2.07-24.06C88,97,77.94,80.08,74.57,77.16Zm51.27-21.22L115.25,75.27l-38.78-.11C79.55,78.42,97,88.92,101.8,92.66c2.75,2.16,2.16,2,6.45,2C114.13,94.64,120.05,94.53,125.94,94.65ZM72.74,71.33l-.1-38.46L53.33,21.76c-.16,5.81-.1,11.4-.15,17,0,5.85.88,5.7,5.25,12.13L72.36,71C72.44,71,72.61,71.21,72.74,71.33ZM19.25,93.78C20.45,92,29.92,75.21,30,74.32c.09-1.46-4.16-8.1-5.15-10-1.39-2.63-4.36-8-5.82-9.73C14.45,63.52,14.34,87.79,19.25,93.78ZM54,19.66C55.06,20.5,72.4,30.5,73.35,30.6c1.25.13,17.83-9.39,19.82-10.7C86.48,14.81,61.47,15.23,54,19.66Zm74.3,74.18c4.19-12.44,4.73-26.94-.1-39.31-1.5,2.34-10.85,17.73-11,19.47C117.09,75.32,126.86,92.12,128.31,93.84Zm-35.1,35.08c-1.5-1.28-18.59-11.21-19.83-11.09-1.43.14-17,9.58-19.42,11C66.09,134.19,80.9,132.57,93.21,128.92ZM21.26,94.56c5.55.19,11.29,0,16.87.08,6.48,0,7.86-2.69,12.14-5.38,3.78-2.37,6.62-4.53,10.1-6.8,3-1.94,8.4-4.88,10.4-7.33l-38.52,0C30.31,77.7,22.17,91.9,21.26,94.56Z"/><path class="cls-1" d="M131.18,171.76q-.85-7.84-1.81-19.42-1.78,13.29-2.26,19.42Zm6.37-29.67,6.86,46.1H132.16l-.65-8.27h-4.33l-.65,8.27h-12.4l6.08-46.1Zm-25,20.11h-12v-8a14.28,14.28,0,0,0-.38-4.36A1.64,1.64,0,0,0,98.5,149a1.74,1.74,0,0,0-1.85,1,16.34,16.34,0,0,0-.4,4.56V176a15.16,15.16,0,0,0,.4,4.39,1.68,1.68,0,0,0,1.77,1,1.66,1.66,0,0,0,1.73-1,16.57,16.57,0,0,0,.41-4.82v-5.8h12v1.79q0,7.17-1,10.17a10.37,10.37,0,0,1-4.47,5.25,15.25,15.25,0,0,1-8.53,2.25,17.68,17.68,0,0,1-8.68-1.9A9.26,9.26,0,0,1,85.35,182a34.79,34.79,0,0,1-1.11-10.16V158.38a61.46,61.46,0,0,1,.34-7.47,10.57,10.57,0,0,1,2-4.8,11.3,11.3,0,0,1,4.69-3.63,16.9,16.9,0,0,1,6.91-1.33,16.92,16.92,0,0,1,8.75,2,9.84,9.84,0,0,1,4.52,5.1q1.08,3.06,1.08,9.52ZM79.76,142.09v46.1H69.27l0-31.12-4.17,31.12H57.73l-4.4-30.42,0,30.42H42.81v-46.1H58.3c.44,2.79.92,6.07,1.43,9.82l1.7,11.71,2.73-21.53Zm-41.74,0v46.1H26v-46.1Zm-35.21,0H23.1v9.21H14.82v8.8h7.34v8.74H14.82v19.35h-12Z"/><path class="cls-3" d="M132.27,206.5a3.88,3.88,0,0,0,.81,2.66,2.81,2.81,0,0,0,4.11,0,4,4,0,0,0,.8-2.7,3.88,3.88,0,0,0-.78-2.65,2.9,2.9,0,0,0-4.15,0,3.94,3.94,0,0,0-.79,2.67m-2.14.07a6.48,6.48,0,0,1,.47-2.65,4.69,4.69,0,0,1,1-1.42,3.92,3.92,0,0,1,1.33-.93,5.76,5.76,0,0,1,2.23-.41,4.87,4.87,0,0,1,3.65,1.42,6.34,6.34,0,0,1,0,7.86,5.43,5.43,0,0,1-7.3,0A5.33,5.33,0,0,1,130.13,206.57Zm-7.89-.86h1.55a8.44,8.44,0,0,0,1.87-.12,1.16,1.16,0,0,0,.58-.44,1.35,1.35,0,0,0,.21-.78,1.24,1.24,0,0,0-.28-.84,1.25,1.25,0,0,0-.78-.4c-.17,0-.68,0-1.52,0h-1.63Zm-2.08,5.95V201.35h4.38a7.31,7.31,0,0,1,2.4.28,2.3,2.3,0,0,1,1.21,1,3,3,0,0,1,.45,1.62,2.78,2.78,0,0,1-.68,1.92,3.29,3.29,0,0,1-2,1A4.56,4.56,0,0,1,127,208a10.57,10.57,0,0,1,1.18,1.67l1.26,2h-2.49l-1.49-2.25a14.86,14.86,0,0,0-1.1-1.51,1.65,1.65,0,0,0-.63-.43,3.74,3.74,0,0,0-1-.11h-.43v4.3Zm-6.48,0v-8.57h-3.06v-1.74h8.18v1.74h-3v8.57Zm-12.73,0V201.35h2l4.25,6.91v-6.91h1.93v10.31h-2.09l-4.18-6.78v6.78Zm-9.61,0V201.35H99v1.74H93.43v2.29h5.16v1.75H93.43v2.79h5.75v1.74Zm-3.8-3.8,2,.62A4.56,4.56,0,0,1,88,211a4.38,4.38,0,0,1-2.74.83,4.43,4.43,0,0,1-3.38-1.41,5.36,5.36,0,0,1-1.32-3.84,5.62,5.62,0,0,1,1.33-4,4.55,4.55,0,0,1,3.5-1.43,4.31,4.31,0,0,1,3.07,1.12,4.18,4.18,0,0,1,1.06,1.91l-2.06.49A2.13,2.13,0,0,0,85.29,203a2.34,2.34,0,0,0-1.86.82,4,4,0,0,0-.72,2.67,4.3,4.3,0,0,0,.71,2.78,2.3,2.3,0,0,0,1.83.83,2.06,2.06,0,0,0,1.43-.53A3,3,0,0,0,87.54,207.86Zm-10.67,3.8V201.35H79v10.31Zm-10.33,0V201.35h2l4.24,6.91v-6.91h1.93v10.31H72.65l-4.18-6.78v6.78ZM56.13,201.35h2.09v5.59a11.56,11.56,0,0,0,.08,1.72,1.66,1.66,0,0,0,.63,1,2.15,2.15,0,0,0,1.36.38,2,2,0,0,0,1.33-.36,1.46,1.46,0,0,0,.53-.89,11.71,11.71,0,0,0,.09-1.75v-5.71h2.09v5.42a13.33,13.33,0,0,1-.17,2.63,3,3,0,0,1-.62,1.3,3.12,3.12,0,0,1-1.21.84,5.2,5.2,0,0,1-2,.31,5.63,5.63,0,0,1-2.23-.34,3.17,3.17,0,0,1-1.2-.89,2.69,2.69,0,0,1-.58-1.14,12.23,12.23,0,0,1-.21-2.62Zm-8.39,6.22-1.43-3.81-1.4,3.81Zm3.82,4.09H49.31l-.89-2.34H44.28l-.86,2.34H41.21l4-10.31h2.2Zm-13.1-3.8,2,.62A4.56,4.56,0,0,1,38.93,211a4.38,4.38,0,0,1-2.74.83,4.43,4.43,0,0,1-3.38-1.41,5.36,5.36,0,0,1-1.32-3.84,5.62,5.62,0,0,1,1.33-4,4.55,4.55,0,0,1,3.5-1.43,4.31,4.31,0,0,1,3.07,1.12,4.18,4.18,0,0,1,1.06,1.91l-2.06.49a2.21,2.21,0,0,0-.77-1.27,2.17,2.17,0,0,0-1.41-.46,2.34,2.34,0,0,0-1.86.82,4,4,0,0,0-.72,2.67,4.3,4.3,0,0,0,.71,2.78,2.3,2.3,0,0,0,1.83.83,2.06,2.06,0,0,0,1.43-.53A3,3,0,0,0,38.46,207.86Zm-18.63,3.8V201.35H23l1.85,7,1.83-7h3.13v10.31H27.84v-8.12l-2,8.12h-2l-2-8.12v8.12Zm-4,0V201.35h2.09v10.31Zm-8.73,0V201.35h7.09v1.74h-5v2.45h4.32v1.74H9.15v4.38Z"/><rect class="cls-3" x="2.74" y="194.47" width="141.75" height="1.39"/></g></g></svg>